<svg xmlns="http://www.w3.org/2000/svg" xmlns:xlink="http://www.w3.org/1999/xlink" width="500" zoomAndPan="magnify" viewBox="0 0 375 374.999991" height="500" preserveAspectRatio="xMidYMid meet" version="1.0"><defs><clipPath id="6786fd653d"><path d="M 0 55.78125 L 370 55.78125 L 370 319.03125 L 0 319.03125 Z M 0 55.78125 " clip-rule="nonzero"/></clipPath></defs><g clip-path="url(#6786fd653d)"><path fill="#ffffff" d="M 160.46875 151.910156 C 160.238281 152.273438 137.792969 188.554688 145.214844 212.328125 C 145.847656 214.351562 143.929688 214.550781 142.980469 213.300781 C 142.246094 212.332031 141.894531 210.703125 141.664062 209.523438 C 141.191406 207.113281 140.972656 204.660156 140.933594 202.207031 C 140.855469 197.113281 141.570312 192.019531 142.707031 187.0625 C 145.636719 174.261719 151.148438 161.582031 158.125 150.445312 C 158.527344 149.796875 159.382812 149.601562 160.027344 150.007812 C 160.675781 150.414062 160.871094 151.265625 160.46875 151.910156 Z M 142.0625 166.9375 C 142.460938 166.398438 142.417969 165.628906 141.925781 165.140625 C 141.386719 164.601562 140.511719 164.601562 139.972656 165.140625 C 138.78125 166.332031 136.148438 178.753906 134.910156 187.714844 C 134.0625 193.832031 133.464844 200.054688 133.722656 206.238281 C 133.839844 209.023438 134.105469 211.855469 134.871094 214.546875 C 135.199219 215.699219 135.824219 217.328125 136.679688 218.183594 C 137.871094 219.375 139.824219 218.625 138.742188 216.792969 C 132.53125 206.238281 140.777344 169.578125 142.0625 166.9375 Z M 133.230469 219.617188 C 128.867188 213.667969 129.921875 186.523438 130.292969 184.082031 C 130.453125 183.394531 130.066406 182.6875 129.382812 182.460938 C 128.65625 182.214844 127.875 182.609375 127.632812 183.332031 C 127.136719 184.824219 127.335938 186.839844 127.273438 188.386719 C 127.128906 191.945312 127.097656 195.511719 127.175781 199.074219 C 127.308594 205.433594 126.867188 214.726562 130.433594 220.351562 C 131.660156 222.28125 134.679688 221.597656 133.230469 219.617188 Z M 121.949219 196.027344 C 121.96875 195.265625 121.363281 194.632812 120.601562 194.613281 C 120.589844 194.609375 120.578125 194.609375 120.566406 194.609375 C 119.816406 194.609375 119.203125 195.207031 119.183594 195.957031 C 119.082031 199.785156 119.351562 203.667969 119.941406 207.449219 C 120.375 210.242188 120.992188 213.078125 122.160156 215.664062 C 122.667969 216.789062 123.277344 218.042969 124.15625 218.933594 C 125.621094 220.421875 128.613281 219.355469 126.710938 217.609375 C 122.449219 213.691406 121.828125 200.703125 121.949219 196.027344 Z M 248.53125 179.242188 C 256.007812 179.242188 257.367188 174.714844 257.367188 174.714844 C 257.367188 174.714844 256.234375 167.925781 250.34375 167.472656 C 244.457031 167.023438 242.417969 174.265625 242.417969 174.265625 C 242.417969 174.265625 241.058594 179.242188 248.53125 179.242188 Z M 303.777344 190.273438 C 303.933594 190.332031 304.09375 190.355469 304.25 190.355469 C 304.8125 190.355469 305.34375 190.007812 305.546875 189.449219 C 305.808594 188.730469 305.4375 187.9375 304.722656 187.675781 C 302.875 187.007812 301.695312 185.90625 301.109375 184.316406 C 299.320312 179.449219 303.59375 171.855469 303.636719 171.78125 C 304.015625 171.117188 303.785156 170.273438 303.121094 169.894531 C 302.457031 169.519531 301.617188 169.746094 301.238281 170.410156 C 301.035156 170.765625 296.28125 179.191406 298.511719 185.265625 C 299.382812 187.636719 301.152344 189.320312 303.777344 190.273438 Z M 93.203125 176.351562 C 81.324219 185.804688 33.679688 199.957031 33.199219 200.097656 C 32.46875 200.316406 32.050781 201.085938 32.269531 201.816406 C 32.445312 202.417969 32.996094 202.804688 33.59375 202.804688 C 33.722656 202.804688 33.855469 202.789062 33.984375 202.75 C 35.964844 202.164062 82.628906 188.300781 94.925781 178.515625 C 95.523438 178.039062 95.621094 177.167969 95.148438 176.574219 C 94.671875 175.976562 93.804688 175.878906 93.203125 176.351562 Z M 320.339844 227.507812 C 318.511719 231.175781 317.730469 235.273438 316.929688 239.261719 C 318.59375 239.40625 319.6875 239.878906 320.28125 240.839844 C 321.300781 242.476562 320.15625 244.503906 319.203125 245.886719 C 317.75 248.003906 314.742188 250.261719 310.472656 252.492188 C 314.078125 255.140625 325.925781 263.933594 337.183594 273.296875 C 362.039062 293.980469 363.019531 299.757812 361.09375 302.484375 C 360.738281 302.988281 360.046875 303.625 358.769531 303.8125 C 358.554688 303.84375 358.324219 303.859375 358.078125 303.859375 C 345.777344 303.859375 296.421875 265.378906 289.777344 260.15625 C 278.160156 263.316406 263.894531 265.820312 248.171875 266.855469 C 237.203125 267.574219 226.753906 267.890625 217.070312 267.890625 C 191.34375 267.890625 171.058594 265.667969 160.976562 262.960938 C 145.976562 258.9375 113.394531 250.441406 113.066406 250.355469 C 113.015625 250.34375 112.96875 250.320312 112.921875 250.300781 C 110.929688 251.253906 109.054688 252.199219 107.417969 253.105469 C 104.285156 254.835938 94.265625 261.683594 81.585938 270.351562 C 66.761719 280.480469 48.316406 293.089844 32.984375 302.90625 C 11.101562 316.914062 5.121094 319.050781 2.921875 319.050781 C 2.367188 319.050781 2.054688 318.914062 1.789062 318.796875 C 1.066406 318.488281 0.613281 317.871094 0.542969 317.105469 C 0.394531 315.503906 0.0820312 312.171875 38.4375 283.53125 C 58.976562 268.195312 80.664062 253.042969 87.402344 248.488281 C 90.625 246.308594 93.742188 244.085938 96.660156 241.933594 C 96.660156 241.933594 87.101562 237.058594 87.101562 237.058594 C 86.769531 236.890625 82.554688 240.4375 82.035156 240.792969 C 80.175781 242.074219 78.265625 243.296875 76.261719 244.34375 C 74.210938 245.414062 68.722656 248.402344 67.203125 245.066406 C 66.164062 242.777344 68.757812 238.53125 74.398438 231.3125 C 73.996094 231.824219 64.851562 228.429688 63.800781 228.109375 C 60.273438 227.027344 56.75 225.925781 53.234375 224.8125 C 50.242188 223.863281 46.894531 223.230469 44.074219 221.835938 C 42.261719 220.9375 39.65625 218.6875 37.761719 220.816406 C 36.648438 222.074219 36.179688 224.296875 35.699219 225.847656 C 34.167969 230.777344 33.125 235.863281 32.03125 240.902344 C 28.910156 255.28125 27.109375 262.785156 23.402344 262.785156 C 22.941406 262.785156 22.273438 262.640625 21.679688 261.964844 C 17.40625 257.074219 22.921875 214.667969 24.070312 206.21875 C 24.445312 203.460938 24.976562 200.234375 24.90625 197.417969 C 24.84375 194.984375 24.652344 192.550781 24.476562 190.121094 C 23.964844 183.203125 23.324219 176.292969 22.699219 169.382812 C 19.425781 133.078125 18.640625 119.816406 20.765625 117.726562 C 21.15625 117.339844 21.65625 117.160156 22.1875 117.214844 C 23.742188 117.378906 25.871094 117.601562 33.386719 152.414062 C 36.453125 166.613281 39.167969 180.925781 39.941406 185.050781 C 47.40625 179.984375 58.355469 174.582031 74.351562 170.019531 C 74.738281 169.828125 76.125 169.015625 78.160156 167.804688 C 77.214844 164.402344 75.351562 155.503906 81.089844 155.230469 C 85.378906 155.019531 92.265625 157.367188 94.269531 158.089844 C 111.472656 147.6875 133.601562 134.335938 140.113281 131.152344 C 141.613281 130.417969 143.554688 129.242188 145.804688 127.878906 C 149.730469 125.496094 154.921875 122.355469 161.453125 119.339844 C 162.390625 115.003906 168.175781 88.136719 168.789062 82.011719 C 168.992188 80.003906 168.808594 76.785156 168.617188 73.378906 C 168.128906 64.78125 167.984375 58.980469 170.269531 56.761719 C 170.953125 56.101562 171.820312 55.792969 172.777344 55.875 C 175.847656 56.144531 177.925781 62.714844 182.660156 80.042969 C 185.796875 91.523438 190.535156 108.878906 194.003906 110.101562 C 194.0625 110.125 194.117188 110.152344 194.171875 110.179688 C 205.242188 108.921875 218.042969 109.15625 232.714844 112.027344 C 285.675781 122.386719 354.023438 147.183594 359.765625 152.421875 C 363.90625 156.203125 374.914062 166.242188 365.617188 179.144531 C 358.621094 188.855469 352.226562 198.976562 344.269531 207.957031 C 340.285156 212.453125 334.59375 219.082031 328.082031 219.523438 C 326.144531 220.996094 324.3125 222.335938 322.773438 224.003906 C 321.84375 225.015625 321.015625 226.148438 320.339844 227.507812 Z M 317.359375 227.6875 C 317.023438 228.300781 316.070312 228.296875 315.527344 227.855469 C 314.984375 227.414062 314.75 226.707031 314.539062 226.039062 C 314.039062 224.4375 313.535156 222.832031 313.03125 221.234375 C 310.164062 223.277344 307.238281 225.242188 304.265625 227.132812 C 303.574219 227.570312 302.558594 227.964844 302.039062 227.332031 C 301.800781 227.046875 301.777344 226.648438 301.761719 226.277344 C 301.703125 224.710938 301.640625 223.140625 301.582031 221.574219 C 299.8125 223.535156 297.871094 225.34375 295.785156 226.964844 C 295.328125 227.320312 294.761719 227.6875 294.210938 227.515625 C 293.878906 227.410156 293.636719 227.132812 293.429688 226.851562 C 292.132812 225.105469 291.546875 222.84375 291.835938 220.6875 C 288.921875 222.539062 286.007812 224.394531 283.09375 226.25 C 282.265625 226.777344 281.09375 227.28125 280.394531 226.589844 C 280.117188 226.3125 280.007812 225.910156 279.910156 225.527344 C 279.421875 223.589844 278.933594 221.652344 278.445312 219.71875 C 274.195312 221.96875 269.925781 224.179688 265.636719 226.351562 C 264.765625 226.792969 263.574219 227.183594 262.921875 226.457031 C 262.601562 226.097656 262.542969 225.582031 262.5 225.105469 C 262.359375 223.507812 262.21875 221.914062 262.078125 220.316406 C 258.628906 222.132812 255.148438 223.886719 251.636719 225.578125 C 251.171875 225.800781 250.660156 226.027344 250.15625 225.914062 C 249.492188 225.761719 249.109375 225.082031 248.832031 224.460938 C 248.066406 222.757812 247.472656 220.980469 247.058594 219.160156 C 242.828125 219.621094 238.542969 220.089844 234.480469 221.410156 C 233.226562 221.820312 229.773438 222.558594 229.898438 224.238281 C 229.996094 225.558594 232.96875 226.921875 233.996094 227.351562 C 234.289062 227.476562 234.601562 227.59375 234.925781 227.578125 C 235.402344 227.558594 235.816406 227.261719 236.199219 226.976562 C 238.429688 225.324219 240.65625 223.667969 242.886719 222.011719 C 243.226562 221.761719 243.597656 221.5 244.019531 221.511719 C 244.855469 221.53125 245.253906 222.53125 245.4375 223.347656 C 246.085938 226.175781 246.730469 229.007812 247.378906 231.839844 C 250.316406 229.800781 253.253906 227.765625 256.191406 225.726562 C 256.722656 225.359375 257.398438 224.972656 257.980469 225.257812 C 258.367188 225.445312 258.570312 225.867188 258.742188 226.257812 C 260.140625 229.410156 261.539062 232.566406 262.9375 235.71875 C 266.035156 233.207031 269.136719 230.699219 272.238281 228.191406 C 272.847656 227.695312 273.675781 227.179688 274.359375 227.566406 C 274.824219 227.832031 274.992188 228.414062 275.113281 228.9375 C 275.875 232.144531 276.636719 235.351562 277.398438 238.558594 C 279.953125 236.070312 282.507812 233.585938 285.0625 231.097656 C 285.484375 230.6875 285.996094 230.246094 286.578125 230.328125 C 287.390625 230.441406 287.695312 231.433594 287.828125 232.242188 C 288.242188 234.816406 288.660156 237.394531 289.078125 239.972656 C 291.15625 237.613281 293.238281 235.257812 295.316406 232.902344 C 295.976562 232.15625 297.066406 231.351562 297.847656 231.972656 C 298.171875 232.230469 298.300781 232.65625 298.410156 233.054688 C 299.023438 235.265625 299.636719 237.480469 300.25 239.695312 C 303.328125 237.046875 306.402344 234.398438 309.480469 231.75 C 309.90625 231.386719 310.402344 230.996094 310.960938 231.050781 C 311.707031 231.125 312.128906 231.921875 312.414062 232.617188 C 313.09375 234.261719 313.777344 235.910156 314.457031 237.558594 C 315.425781 234.261719 316.394531 230.976562 317.359375 227.6875 Z M 310.277344 234.71875 L 303.40625 240.621094 C 303.824219 240.5625 304.246094 240.5 304.648438 240.441406 C 307.644531 240.003906 310.160156 239.640625 312.25 239.421875 Z M 296.34375 235.933594 L 291.042969 241.910156 C 292.640625 241.921875 294.136719 241.859375 295.476562 241.695312 C 296.28125 241.597656 297.070312 241.5 297.847656 241.394531 Z M 285.414062 234.601562 L 279.105469 240.757812 C 281.703125 241.179688 284.207031 241.5 286.546875 241.695312 Z M 272.832031 231.265625 L 264.808594 237.757812 C 268.191406 238.609375 271.59375 239.378906 274.902344 240.015625 Z M 256.789062 228.65625 C 254.867188 230.019531 251.984375 232.0625 249.933594 233.472656 C 253.207031 234.535156 256.703125 235.585938 260.289062 236.570312 Z M 243.046875 225.34375 L 237.933594 229.097656 C 239.851562 229.898438 242.054688 230.746094 244.464844 231.605469 C 244.066406 230.210938 243.601562 228.21875 243.046875 225.34375 Z M 323.527344 219.511719 C 321.292969 219.476562 318.503906 219.421875 315.304688 219.359375 L 316.96875 224.496094 Z M 251.148438 222.777344 L 259.320312 218.621094 C 255.523438 218.664062 252.285156 218.75 249.851562 218.890625 Z M 265.125 223.472656 L 274.523438 218.640625 C 271.082031 218.609375 267.769531 218.589844 264.679688 218.59375 Z M 282.242188 223.464844 L 289.609375 218.847656 C 286.742188 218.796875 283.859375 218.753906 281.019531 218.714844 Z M 295.21875 223.449219 L 300.296875 219.046875 C 298.371094 219.007812 296.40625 218.96875 294.421875 218.933594 Z M 304.425781 223.757812 L 311.023438 219.269531 C 310.714844 219.261719 310.410156 219.253906 310.097656 219.25 C 308.238281 219.210938 306.289062 219.167969 304.285156 219.128906 Z M 164.582031 117.953125 C 165.9375 117.375 167.347656 116.8125 168.808594 116.265625 L 171.710938 96.472656 C 171.820312 95.71875 172.515625 95.195312 173.28125 95.304688 C 174.035156 95.417969 174.558594 96.117188 174.449219 96.875 L 171.761719 115.203125 C 177.3125 113.300781 183.578125 111.6875 190.574219 110.652344 C 187.148438 106.238281 184.023438 95.519531 179.992188 80.769531 C 177.578125 71.929688 174.28125 59.851562 172.445312 58.625 C 172.335938 58.632812 172.269531 58.671875 172.195312 58.746094 C 170.644531 60.25 171.085938 68.054688 171.378906 73.222656 C 171.578125 76.738281 171.765625 80.0625 171.542969 82.285156 C 170.96875 88 166.234375 110.269531 164.582031 117.953125 Z M 80.15625 158.808594 C 78.925781 160.601562 80.171875 164.414062 80.636719 166.320312 C 83.601562 164.539062 87.316406 162.292969 91.171875 159.964844 C 89.023438 159.277344 82.644531 156.679688 80.503906 158.433594 C 80.371094 158.542969 80.253906 158.667969 80.15625 158.808594 Z M 27.621094 196.320312 C 29.59375 193.683594 32.683594 190.367188 37.464844 186.808594 C 37.457031 186.785156 37.449219 186.761719 37.445312 186.738281 C 32.320312 158.996094 25.683594 128.621094 22.425781 121.328125 C 21.773438 128.335938 23.957031 152.523438 25.453125 169.132812 C 26.695312 182.886719 27.433594 191.460938 27.621094 196.320312 Z M 35.980469 218.695312 C 30.882812 216.125 27.941406 213.292969 26.265625 210.707031 C 23.359375 233.269531 21.671875 256.511719 23.59375 259.90625 C 25.382812 258.488281 27.746094 247.605469 29.328125 240.316406 C 31.757812 229.128906 33.503906 221.605469 35.980469 218.695312 Z M 133.191406 238.722656 C 132.863281 237.027344 131.65625 229.320312 135.359375 224.265625 C 137.214844 221.730469 139.96875 220.285156 143.542969 219.964844 C 146.34375 219.714844 149.390625 219.542969 152.617188 219.359375 C 164.25 218.703125 177.433594 217.957031 188.894531 213.273438 C 203.613281 207.257812 273.402344 191.21875 285.878906 190.988281 C 289.335938 190.9375 295.148438 191.511719 301.878906 192.195312 C 312.222656 193.242188 322.613281 194.296875 333.023438 194.246094 C 337.785156 194.21875 342.613281 194.003906 347.289062 193.035156 C 349.121094 192.65625 350.96875 192.175781 352.683594 191.414062 C 354.976562 190.394531 355.714844 188.855469 356.980469 186.789062 C 359.871094 182.070312 364.078125 178.257812 365.816406 172.863281 C 366.789062 169.839844 366.996094 164.328125 364.039062 162.214844 C 361.652344 160.507812 357.816406 160.808594 355.074219 161.007812 C 348.722656 161.460938 342.421875 163.042969 336.328125 164.730469 C 336.203125 164.765625 336.078125 164.78125 335.957031 164.78125 C 335.351562 164.78125 334.796875 164.382812 334.625 163.769531 C 334.421875 163.035156 334.851562 162.273438 335.589844 162.070312 C 337.675781 161.492188 353.609375 157.214844 362.257812 158.976562 C 360.929688 157.351562 359.417969 155.84375 357.902344 154.460938 C 353.171875 150.148438 286.117188 125.289062 232.1875 114.738281 C 187.269531 105.953125 160.234375 122.355469 147.242188 130.238281 C 144.933594 131.636719 142.945312 132.847656 141.332031 133.636719 C 134.625 136.914062 110.742188 151.355469 93.304688 161.902344 C 78.121094 171.085938 75.75 172.492188 75.195312 172.652344 C 32.957031 184.679688 27.046875 202.765625 26.992188 202.945312 C 26.90625 203.300781 24.820312 212.863281 44.433594 219.121094 C 46.988281 219.121094 49.597656 220.550781 51.972656 221.355469 C 54.734375 222.289062 57.515625 223.152344 60.304688 224 C 63.089844 224.84375 65.886719 225.671875 68.667969 226.53125 C 69.523438 226.796875 75.863281 229.320312 76.191406 228.984375 C 77.347656 227.792969 78.292969 226.367188 79.296875 225.042969 C 80.148438 223.914062 82.472656 223.617188 82.058594 225.6875 C 81.945312 226.261719 81.578125 226.746094 79.105469 229.828125 C 76.777344 232.722656 69.875 241.320312 69.726562 243.726562 C 69.742188 243.726562 69.761719 243.726562 69.78125 243.726562 C 73.757812 243.726562 83.5625 236.605469 88.863281 232.0625 C 89.785156 231.277344 91.117188 231.976562 91.136719 233.113281 C 91.15625 234.03125 90.078125 234.660156 89.464844 235.164062 C 89.464844 235.164062 99.128906 240.089844 99.128906 240.089844 C 108.660156 232.910156 115.484375 226.949219 115.578125 226.867188 C 116.152344 226.363281 117.023438 226.421875 117.53125 226.992188 C 118.03125 227.566406 117.976562 228.441406 117.402344 228.945312 C 117.273438 229.058594 104.25 240.4375 88.953125 250.777344 C 82.378906 255.21875 61.136719 270.054688 40.832031 285.195312 C 11.460938 307.089844 4.96875 314.046875 3.625 316.207031 C 5.6875 315.765625 12.171875 312.976562 32.136719 300.167969 C 47.304688 290.433594 65.449219 278.035156 80.023438 268.070312 C 92.765625 259.363281 102.832031 252.484375 106.082031 250.6875 C 113.96875 246.328125 126.78125 241.195312 133.191406 238.722656 Z M 307.679688 253.863281 C 303.632812 255.734375 298.707031 257.554688 293.070312 259.222656 C 315.992188 277.140625 351.039062 302.105469 358.371094 301.078125 C 358.507812 301.058594 358.753906 301.007812 358.835938 300.890625 C 359.109375 300.503906 360.765625 296.515625 335.421875 275.425781 C 322.078125 264.324219 307.882812 254.023438 307.738281 253.917969 C 307.71875 253.902344 307.699219 253.882812 307.679688 253.863281 Z M 317.914062 242.25 C 317.039062 241.429688 310.667969 242.359375 305.046875 243.175781 C 302.289062 243.578125 299.160156 244.03125 295.808594 244.441406 C 278.890625 246.492188 239.824219 234.164062 230.609375 228.636719 C 229.550781 228.003906 226.335938 226.074219 226.933594 223.34375 C 227.226562 222.007812 228 218.457031 247.019531 216.347656 C 256 215.347656 288.589844 216.035156 310.15625 216.488281 C 318.238281 216.65625 324.621094 216.792969 327.578125 216.792969 C 333.804688 216.792969 343.148438 205.746094 351.105469 194.925781 C 338.742188 198.699219 317.59375 196.5625 301.597656 194.941406 C 294.957031 194.269531 289.207031 193.679688 285.929688 193.75 C 273.597656 193.980469 204.523438 209.867188 189.941406 215.828125 C 178.054688 220.691406 164.035156 221.480469 152.769531 222.117188 C 149.570312 222.300781 146.546875 222.472656 143.789062 222.714844 C 141 222.964844 138.972656 224.003906 137.589844 225.894531 C 134.839844 229.652344 135.488281 235.628906 135.820312 237.714844 C 136.519531 237.453125 136.960938 237.285156 137.070312 237.246094 C 137.785156 236.984375 138.582031 237.347656 138.847656 238.0625 C 139.113281 238.777344 138.746094 239.570312 138.03125 239.835938 C 137.882812 239.890625 126.808594 244.007812 116.847656 248.488281 C 125.359375 250.707031 149.410156 256.996094 161.691406 260.292969 C 175.355469 263.960938 208.1875 266.71875 247.988281 264.097656 C 285.804688 261.605469 312.320312 251.011719 316.925781 244.324219 C 317.996094 242.769531 317.914062 242.253906 317.914062 242.25 Z M 124.246094 150.179688 C 124.675781 150.257812 125.132812 150.238281 125.519531 150.09375 C 126.441406 149.742188 127.492188 148.816406 128.371094 148.300781 C 130.832031 146.859375 133.304688 145.441406 135.785156 144.039062 C 142.949219 140 150.195312 136.097656 157.574219 132.460938 C 163.546875 129.519531 169.609375 126.703125 175.867188 124.410156 C 180.152344 122.835938 185.003906 121.023438 189.65625 121.277344 C 191.777344 121.332031 191.132812 118.902344 189.609375 118.480469 C 188.546875 118.1875 186.828125 118.625 185.757812 118.792969 C 182.648438 119.273438 179.609375 120.210938 176.640625 121.234375 C 169.027344 123.859375 161.695312 127.304688 154.496094 130.894531 C 143.976562 136.148438 133.648438 141.851562 123.582031 147.929688 C 123.539062 147.953125 123.496094 147.980469 123.453125 148.007812 C 121.925781 148.929688 122.984375 149.953125 124.246094 150.179688 Z M 223.457031 257.371094 C 205.394531 260.914062 157.214844 250.207031 156.730469 250.097656 C 155.988281 249.933594 155.246094 250.398438 155.078125 251.144531 C 154.914062 251.886719 155.382812 252.625 156.125 252.792969 C 157.832031 253.175781 192.386719 260.851562 214.09375 260.851562 C 217.855469 260.851562 221.238281 260.621094 223.992188 260.078125 C 224.738281 259.933594 225.226562 259.207031 225.082031 258.457031 C 224.933594 257.710938 224.210938 257.222656 223.457031 257.371094 Z M 223.457031 257.371094 " fill-opacity="1" fill-rule="nonzero"/></g></svg>