<svg xmlns="http://www.w3.org/2000/svg" xmlns:xlink="http://www.w3.org/1999/xlink" width="500" zoomAndPan="magnify" viewBox="0 0 375 374.999991" height="500" preserveAspectRatio="xMidYMid meet" version="1.0"><path fill="#7289da" d="M 56.25 0 L 318.75 0 C 320.59375 0 322.429688 0.0898438 324.261719 0.269531 C 326.097656 0.453125 327.917969 0.722656 329.722656 1.082031 C 331.53125 1.441406 333.316406 1.886719 335.078125 2.421875 C 336.839844 2.957031 338.574219 3.578125 340.277344 4.28125 C 341.976562 4.988281 343.640625 5.773438 345.265625 6.640625 C 346.890625 7.511719 348.46875 8.457031 350 9.480469 C 351.53125 10.503906 353.011719 11.597656 354.433594 12.769531 C 355.859375 13.9375 357.222656 15.171875 358.523438 16.476562 C 359.828125 17.777344 361.0625 19.140625 362.230469 20.566406 C 363.402344 21.988281 364.496094 23.46875 365.519531 25 C 366.542969 26.53125 367.488281 28.109375 368.359375 29.734375 C 369.226562 31.359375 370.011719 33.023438 370.71875 34.722656 C 371.421875 36.425781 372.042969 38.160156 372.578125 39.921875 C 373.113281 41.683594 373.558594 43.46875 373.917969 45.277344 C 374.277344 47.082031 374.546875 48.902344 374.730469 50.738281 C 374.910156 52.570312 375 54.40625 375 56.25 L 375 318.75 C 375 320.59375 374.910156 322.429688 374.730469 324.261719 C 374.546875 326.097656 374.277344 327.917969 373.917969 329.722656 C 373.558594 331.53125 373.113281 333.316406 372.578125 335.078125 C 372.042969 336.839844 371.421875 338.574219 370.71875 340.277344 C 370.011719 341.976562 369.226562 343.640625 368.359375 345.265625 C 367.488281 346.890625 366.542969 348.46875 365.519531 350 C 364.496094 351.53125 363.402344 353.011719 362.230469 354.433594 C 361.0625 355.859375 359.828125 357.222656 358.523438 358.523438 C 357.222656 359.828125 355.859375 361.0625 354.433594 362.230469 C 353.011719 363.402344 351.53125 364.496094 350 365.519531 C 348.46875 366.542969 346.890625 367.488281 345.265625 368.359375 C 343.640625 369.226562 341.976562 370.011719 340.277344 370.71875 C 338.574219 371.421875 336.839844 372.042969 335.078125 372.578125 C 333.316406 373.113281 331.53125 373.558594 329.722656 373.917969 C 327.917969 374.277344 326.097656 374.546875 324.261719 374.730469 C 322.429688 374.910156 320.59375 375 318.75 375 L 56.25 375 C 54.40625 375 52.570312 374.910156 50.738281 374.730469 C 48.902344 374.546875 47.082031 374.277344 45.277344 373.917969 C 43.46875 373.558594 41.683594 373.113281 39.921875 372.578125 C 38.160156 372.042969 36.425781 371.421875 34.722656 370.71875 C 33.023438 370.011719 31.359375 369.226562 29.734375 368.359375 C 28.109375 367.488281 26.53125 366.542969 25 365.519531 C 23.46875 364.496094 21.988281 363.402344 20.566406 362.230469 C 19.140625 361.0625 17.777344 359.828125 16.476562 358.523438 C 15.171875 357.222656 13.9375 355.859375 12.769531 354.433594 C 11.597656 353.011719 10.503906 351.53125 9.480469 350 C 8.457031 348.46875 7.511719 346.890625 6.640625 345.265625 C 5.773438 343.640625 4.988281 341.976562 4.28125 340.277344 C 3.578125 338.574219 2.957031 336.839844 2.421875 335.078125 C 1.886719 333.316406 1.441406 331.53125 1.082031 329.722656 C 0.722656 327.917969 0.453125 326.097656 0.269531 324.261719 C 0.0898438 322.429688 0 320.59375 0 318.75 L 0 56.25 C 0 54.40625 0.0898438 52.570312 0.269531 50.738281 C 0.453125 48.902344 0.722656 47.082031 1.082031 45.277344 C 1.441406 43.46875 1.886719 41.683594 2.421875 39.921875 C 2.957031 38.160156 3.578125 36.425781 4.28125 34.722656 C 4.988281 33.023438 5.773438 31.359375 6.640625 29.734375 C 7.511719 28.109375 8.457031 26.53125 9.480469 25 C 10.503906 23.46875 11.597656 21.988281 12.769531 20.566406 C 13.9375 19.140625 15.171875 17.777344 16.476562 16.476562 C 17.777344 15.171875 19.140625 13.9375 20.566406 12.769531 C 21.988281 11.597656 23.46875 10.503906 25 9.480469 C 26.53125 8.457031 28.109375 7.511719 29.734375 6.640625 C 31.359375 5.773438 33.023438 4.988281 34.722656 4.28125 C 36.425781 3.578125 38.160156 2.957031 39.921875 2.421875 C 41.683594 1.886719 43.46875 1.441406 45.277344 1.082031 C 47.082031 0.722656 48.902344 0.453125 50.738281 0.269531 C 52.570312 0.0898438 54.40625 0 56.25 0 Z M 56.25 0 " fill-opacity="1" fill-rule="nonzero"/><path fill="#ffffff" d="M 253.417969 287.109375 L 238.035156 268.796875 C 268.066406 260.742188 279.785156 240.234375 279.785156 240.234375 C 241.699219 276.121094 137.695312 277.585938 97.410156 240.234375 C 97.410156 240.234375 107.664062 259.277344 138.425781 268.796875 L 121.582031 287.109375 C 70.3125 286.375 50.539062 251.953125 50.539062 251.953125 C 50.539062 175.78125 84.226562 114.988281 84.226562 114.988281 C 118.652344 90.820312 150.144531 90.820312 150.144531 90.820312 L 152.34375 93.75 C 109.863281 105.46875 91.550781 124.511719 91.550781 124.511719 C 141.355469 90.820312 243.894531 93.75 284.179688 124.511719 C 284.910156 123.777344 260.007812 104.003906 221.191406 93.75 L 224.851562 90.820312 C 224.851562 90.820312 256.347656 90.820312 290.769531 114.988281 C 325.195312 139.160156 324.460938 175.78125 324.460938 251.953125 C 324.460938 251.953125 304.6875 286.375 253.417969 287.109375 Z M 253.417969 287.109375 " fill-opacity="1" fill-rule="nonzero"/><path fill="#7289da" d="M 167.722656 204.34375 C 167.722656 205.183594 167.6875 206.023438 167.609375 206.859375 C 167.53125 207.695312 167.414062 208.523438 167.261719 209.347656 C 167.105469 210.171875 166.914062 210.984375 166.683594 211.785156 C 166.453125 212.589844 166.1875 213.378906 165.882812 214.15625 C 165.582031 214.929688 165.242188 215.6875 164.871094 216.429688 C 164.496094 217.171875 164.089844 217.890625 163.652344 218.585938 C 163.210938 219.285156 162.742188 219.960938 162.238281 220.609375 C 161.734375 221.257812 161.207031 221.878906 160.644531 222.472656 C 160.085938 223.066406 159.5 223.628906 158.886719 224.160156 C 158.277344 224.695312 157.640625 225.195312 156.984375 225.660156 C 156.324219 226.125 155.644531 226.558594 154.949219 226.953125 C 154.25 227.347656 153.535156 227.707031 152.804688 228.027344 C 152.074219 228.351562 151.328125 228.632812 150.570312 228.875 C 149.8125 229.121094 149.046875 229.324219 148.269531 229.488281 C 147.492188 229.652344 146.710938 229.773438 145.921875 229.855469 C 145.136719 229.9375 144.347656 229.980469 143.554688 229.980469 C 142.761719 229.980469 141.972656 229.9375 141.1875 229.855469 C 140.398438 229.773438 139.617188 229.652344 138.839844 229.488281 C 138.0625 229.324219 137.296875 229.121094 136.539062 228.875 C 135.78125 228.632812 135.035156 228.351562 134.304688 228.027344 C 133.574219 227.707031 132.859375 227.347656 132.160156 226.953125 C 131.464844 226.558594 130.785156 226.125 130.125 225.660156 C 129.46875 225.195312 128.832031 224.695312 128.222656 224.160156 C 127.609375 223.628906 127.023438 223.066406 126.464844 222.472656 C 125.902344 221.878906 125.375 221.257812 124.871094 220.609375 C 124.367188 219.960938 123.898438 219.285156 123.457031 218.585938 C 123.019531 217.890625 122.613281 217.171875 122.238281 216.429688 C 121.867188 215.6875 121.527344 214.929688 121.222656 214.15625 C 120.921875 213.378906 120.65625 212.589844 120.425781 211.785156 C 120.195312 210.984375 120.003906 210.171875 119.847656 209.347656 C 119.695312 208.523438 119.578125 207.695312 119.5 206.859375 C 119.421875 206.023438 119.382812 205.183594 119.382812 204.34375 C 119.382812 203.507812 119.421875 202.667969 119.5 201.832031 C 119.578125 200.996094 119.695312 200.167969 119.847656 199.34375 C 120.003906 198.519531 120.195312 197.707031 120.425781 196.90625 C 120.65625 196.101562 120.921875 195.3125 121.222656 194.535156 C 121.527344 193.761719 121.867188 193.003906 122.238281 192.261719 C 122.613281 191.519531 123.019531 190.800781 123.457031 190.105469 C 123.898438 189.40625 124.367188 188.730469 124.871094 188.082031 C 125.375 187.433594 125.902344 186.8125 126.464844 186.21875 C 127.023438 185.625 127.609375 185.0625 128.222656 184.53125 C 128.832031 183.996094 129.46875 183.496094 130.125 183.03125 C 130.785156 182.566406 131.464844 182.132812 132.160156 181.738281 C 132.859375 181.34375 133.574219 180.984375 134.304688 180.664062 C 135.035156 180.339844 135.78125 180.058594 136.539062 179.816406 C 137.296875 179.570312 138.0625 179.367188 138.839844 179.203125 C 139.617188 179.039062 140.398438 178.917969 141.1875 178.835938 C 141.972656 178.753906 142.761719 178.710938 143.554688 178.710938 C 144.347656 178.710938 145.136719 178.753906 145.921875 178.835938 C 146.710938 178.917969 147.492188 179.039062 148.269531 179.203125 C 149.046875 179.367188 149.8125 179.570312 150.570312 179.816406 C 151.328125 180.058594 152.074219 180.339844 152.804688 180.664062 C 153.535156 180.984375 154.25 181.34375 154.949219 181.738281 C 155.644531 182.132812 156.324219 182.566406 156.984375 183.03125 C 157.640625 183.496094 158.277344 183.996094 158.886719 184.53125 C 159.5 185.0625 160.085938 185.625 160.644531 186.21875 C 161.207031 186.8125 161.734375 187.433594 162.238281 188.082031 C 162.742188 188.730469 163.210938 189.40625 163.652344 190.105469 C 164.089844 190.800781 164.496094 191.519531 164.871094 192.261719 C 165.242188 193.003906 165.582031 193.761719 165.882812 194.535156 C 166.1875 195.3125 166.453125 196.101562 166.683594 196.90625 C 166.914062 197.707031 167.105469 198.519531 167.261719 199.34375 C 167.414062 200.167969 167.53125 200.996094 167.609375 201.832031 C 167.6875 202.667969 167.722656 203.507812 167.722656 204.34375 Z M 167.722656 204.34375 " fill-opacity="1" fill-rule="nonzero"/><path fill="#7289da" d="M 252.683594 204.34375 C 252.683594 205.183594 252.648438 206.023438 252.570312 206.859375 C 252.492188 207.695312 252.375 208.523438 252.222656 209.347656 C 252.066406 210.171875 251.875 210.984375 251.644531 211.785156 C 251.414062 212.589844 251.148438 213.378906 250.84375 214.15625 C 250.542969 214.929688 250.203125 215.6875 249.832031 216.429688 C 249.457031 217.171875 249.050781 217.890625 248.613281 218.585938 C 248.171875 219.285156 247.703125 219.960938 247.199219 220.609375 C 246.695312 221.257812 246.167969 221.878906 245.605469 222.472656 C 245.046875 223.066406 244.460938 223.628906 243.847656 224.160156 C 243.238281 224.695312 242.601562 225.195312 241.945312 225.660156 C 241.285156 226.125 240.605469 226.558594 239.910156 226.953125 C 239.210938 227.347656 238.496094 227.707031 237.765625 228.027344 C 237.035156 228.351562 236.289062 228.632812 235.53125 228.875 C 234.773438 229.121094 234.007812 229.324219 233.230469 229.488281 C 232.453125 229.652344 231.671875 229.773438 230.882812 229.855469 C 230.097656 229.9375 229.308594 229.980469 228.515625 229.980469 C 227.722656 229.980469 226.933594 229.9375 226.148438 229.855469 C 225.359375 229.773438 224.578125 229.652344 223.800781 229.488281 C 223.023438 229.324219 222.257812 229.121094 221.5 228.875 C 220.742188 228.632812 219.996094 228.351562 219.265625 228.027344 C 218.535156 227.707031 217.820312 227.347656 217.121094 226.953125 C 216.425781 226.558594 215.746094 226.125 215.085938 225.660156 C 214.429688 225.195312 213.792969 224.695312 213.183594 224.160156 C 212.570312 223.628906 211.984375 223.066406 211.425781 222.472656 C 210.863281 221.878906 210.335938 221.257812 209.832031 220.609375 C 209.328125 219.960938 208.859375 219.285156 208.417969 218.585938 C 207.980469 217.890625 207.574219 217.171875 207.199219 216.429688 C 206.828125 215.6875 206.488281 214.929688 206.183594 214.15625 C 205.882812 213.378906 205.617188 212.589844 205.386719 211.785156 C 205.15625 210.984375 204.964844 210.171875 204.808594 209.347656 C 204.65625 208.523438 204.539062 207.695312 204.460938 206.859375 C 204.382812 206.023438 204.34375 205.183594 204.34375 204.34375 C 204.34375 203.507812 204.382812 202.667969 204.460938 201.832031 C 204.539062 200.996094 204.65625 200.167969 204.808594 199.34375 C 204.964844 198.519531 205.15625 197.707031 205.386719 196.90625 C 205.617188 196.101562 205.882812 195.3125 206.183594 194.535156 C 206.488281 193.761719 206.828125 193.003906 207.199219 192.261719 C 207.574219 191.519531 207.980469 190.800781 208.417969 190.105469 C 208.859375 189.40625 209.328125 188.730469 209.832031 188.082031 C 210.335938 187.433594 210.863281 186.8125 211.425781 186.21875 C 211.984375 185.625 212.570312 185.0625 213.183594 184.53125 C 213.792969 183.996094 214.429688 183.496094 215.085938 183.03125 C 215.746094 182.566406 216.425781 182.132812 217.121094 181.738281 C 217.820312 181.34375 218.535156 180.984375 219.265625 180.664062 C 219.996094 180.339844 220.742188 180.058594 221.5 179.816406 C 222.257812 179.570312 223.023438 179.367188 223.800781 179.203125 C 224.578125 179.039062 225.359375 178.917969 226.148438 178.835938 C 226.933594 178.753906 227.722656 178.710938 228.515625 178.710938 C 229.308594 178.710938 230.097656 178.753906 230.882812 178.835938 C 231.671875 178.917969 232.453125 179.039062 233.230469 179.203125 C 234.007812 179.367188 234.773438 179.570312 235.53125 179.816406 C 236.289062 180.058594 237.035156 180.339844 237.765625 180.664062 C 238.496094 180.984375 239.210938 181.34375 239.910156 181.738281 C 240.605469 182.132812 241.285156 182.566406 241.945312 183.03125 C 242.601562 183.496094 243.238281 183.996094 243.847656 184.53125 C 244.460938 185.0625 245.046875 185.625 245.605469 186.21875 C 246.167969 186.8125 246.695312 187.433594 247.199219 188.082031 C 247.703125 188.730469 248.171875 189.40625 248.613281 190.105469 C 249.050781 190.800781 249.457031 191.519531 249.832031 192.261719 C 250.203125 193.003906 250.542969 193.761719 250.84375 194.535156 C 251.148438 195.3125 251.414062 196.101562 251.644531 196.90625 C 251.875 197.707031 252.066406 198.519531 252.222656 199.34375 C 252.375 200.167969 252.492188 200.996094 252.570312 201.832031 C 252.648438 202.667969 252.683594 203.507812 252.683594 204.34375 Z M 252.683594 204.34375 " fill-opacity="1" fill-rule="nonzero"/></svg>