<svg xmlns="http://www.w3.org/2000/svg" xmlns:xlink="http://www.w3.org/1999/xlink" width="200" zoomAndPan="magnify" viewBox="0 0 150 44.999999" height="60" preserveAspectRatio="xMidYMid meet" version="1.0"><defs><g/><clipPath id="7af4af9a64"><path d="M 76 3.167969 L 147 3.167969 L 147 42 L 76 42 Z M 76 3.167969 " clip-rule="nonzero"/></clipPath><clipPath id="bcec100f8a"><path d="M 2.070312 3.035156 L 54.570312 3.035156 L 54.570312 42.035156 L 2.070312 42.035156 Z M 2.070312 3.035156 " clip-rule="nonzero"/></clipPath></defs><g clip-path="url(#7af4af9a64)"><path fill="#ffffff" d="M 146.515625 22.261719 C 146.488281 22.09375 146.515625 21.898438 146.488281 21.730469 C 146.488281 21.394531 146.488281 21.03125 146.460938 20.695312 C 146.402344 19.851562 146.265625 19.039062 146.070312 18.199219 C 145.625 16.125 144.84375 14.136719 143.789062 12.289062 C 142.871094 10.691406 141.699219 9.261719 140.308594 8.054688 C 139.195312 7.074219 138 6.234375 136.664062 5.589844 C 135.773438 5.140625 134.824219 4.777344 133.851562 4.46875 C 132.097656 3.9375 130.261719 3.65625 128.425781 3.601562 C 126.976562 3.574219 125.53125 3.601562 124.082031 3.601562 C 123.914062 3.601562 123.75 3.710938 123.691406 3.851562 C 123.246094 4.863281 122.800781 5.898438 122.386719 6.90625 C 121.355469 9.316406 120.296875 11.726562 119.269531 14.136719 C 118.320312 16.320312 117.375 18.507812 116.429688 20.722656 C 115.566406 22.710938 114.703125 24.699219 113.867188 26.660156 C 113.507812 27.503906 113.144531 28.371094 112.753906 29.210938 C 112.644531 29.4375 112.617188 29.660156 112.617188 29.882812 C 112.617188 31.003906 112.617188 32.097656 112.617188 33.21875 C 112.617188 33.441406 112.617188 33.441406 112.394531 33.441406 L 108.996094 33.441406 C 108.804688 33.441406 108.804688 33.441406 108.886719 33.246094 C 108.914062 33.21875 108.914062 33.164062 108.941406 33.136719 C 109.472656 31.902344 110 30.667969 110.527344 29.40625 C 111.195312 27.8125 111.890625 26.242188 112.589844 24.644531 C 113.5625 22.375 114.535156 20.132812 115.511719 17.863281 L 117.738281 12.707031 C 118.515625 10.886719 119.296875 9.066406 120.074219 7.242188 C 120.546875 6.121094 121.019531 5 121.523438 3.910156 C 121.660156 3.574219 121.660156 3.542969 121.300781 3.542969 L 94.859375 3.542969 C 94.664062 3.542969 94.496094 3.710938 94.496094 3.910156 L 94.496094 11.445312 C 94.496094 11.839844 94.496094 11.839844 94.886719 11.839844 L 106.6875 11.839844 C 106.769531 11.839844 106.800781 11.894531 106.769531 11.949219 C 106.742188 11.980469 106.742188 12.035156 106.714844 12.0625 C 105.992188 13.660156 105.269531 15.257812 104.542969 16.855469 L 101.84375 22.851562 C 100.980469 24.757812 100.148438 26.660156 99.285156 28.566406 C 99.257812 28.652344 99.230469 28.734375 99.144531 28.761719 C 99.117188 28.734375 99.089844 28.679688 99.0625 28.652344 C 98.617188 27.671875 98.171875 26.691406 97.726562 25.679688 C 97.253906 24.589844 96.75 23.523438 96.277344 22.429688 C 95.777344 21.339844 95.304688 20.246094 94.804688 19.152344 C 94.332031 18.058594 93.828125 16.996094 93.355469 15.902344 L 91.882812 12.625 C 91.40625 11.53125 90.90625 10.464844 90.433594 9.371094 C 89.933594 8.28125 89.433594 7.160156 88.957031 6.066406 C 88.597656 5.28125 88.234375 4.496094 87.902344 3.683594 C 87.816406 3.515625 87.734375 3.433594 87.539062 3.433594 C 83.921875 3.433594 80.273438 3.433594 76.65625 3.433594 C 76.574219 3.433594 76.488281 3.433594 76.433594 3.488281 L 76.433594 3.515625 C 76.433594 3.515625 76.460938 3.542969 76.460938 3.542969 C 76.933594 4.636719 77.4375 5.730469 77.9375 6.824219 C 78.492188 8.054688 79.050781 9.289062 79.605469 10.523438 L 81.554688 14.894531 C 82.222656 16.351562 82.863281 17.835938 83.53125 19.292969 C 84.253906 20.890625 84.949219 22.488281 85.675781 24.085938 C 86.453125 25.820312 87.234375 27.558594 88.011719 29.296875 C 88.734375 30.921875 89.488281 32.546875 90.183594 34.171875 C 90.960938 35.992188 91.769531 37.816406 92.550781 39.636719 C 92.800781 40.253906 93.078125 40.839844 93.328125 41.457031 C 93.355469 41.542969 93.410156 41.625 93.523438 41.597656 L 128.953125 41.597656 C 129.371094 41.597656 129.761719 41.597656 130.179688 41.542969 C 131.484375 41.402344 132.765625 41.148438 134.019531 40.757812 C 135.6875 40.253906 137.246094 39.523438 138.695312 38.542969 C 139.945312 37.703125 141.058594 36.695312 142.035156 35.574219 C 142.980469 34.453125 143.816406 33.21875 144.457031 31.929688 C 145.011719 30.867188 145.429688 29.714844 145.765625 28.566406 C 146.210938 26.96875 146.542969 25.34375 146.515625 23.664062 C 146.515625 23.496094 146.488281 23.328125 146.542969 23.160156 C 146.515625 22.964844 146.515625 22.628906 146.515625 22.261719 Z M 136.578125 26.914062 C 136.105469 28.089844 135.464844 29.183594 134.574219 30.109375 C 133.378906 31.371094 131.929688 32.210938 130.234375 32.601562 C 129.425781 32.796875 128.589844 32.910156 127.757812 32.882812 L 121.882812 32.882812 C 121.882812 32.855469 121.882812 32.828125 121.855469 32.796875 C 121.855469 32.742188 121.855469 32.660156 121.855469 32.601562 L 121.855469 12.792969 C 121.855469 12.707031 121.828125 12.59375 121.882812 12.539062 C 121.96875 12.511719 122.050781 12.539062 122.132812 12.539062 L 127.699219 12.539062 C 128.480469 12.539062 129.230469 12.625 129.984375 12.792969 C 132.097656 13.269531 133.824219 14.390625 135.132812 16.125 C 135.9375 17.191406 136.496094 18.367188 136.859375 19.65625 C 137.082031 20.441406 137.21875 21.226562 137.273438 22.011719 C 137.441406 23.664062 137.191406 25.34375 136.578125 26.914062 Z M 136.578125 26.914062 " fill-opacity="1" fill-rule="nonzero"/></g><g clip-path="url(#bcec100f8a)"><path fill="#ffffff" d="M 54.46875 31.414062 C 54.277344 30.039062 53.640625 28.886719 52.875 27.734375 C 50.835938 24.757812 48.257812 22.167969 45.292969 20.121094 C 45.007812 19.894531 44.722656 19.609375 44.53125 19.320312 C 43.449219 17.914062 42.363281 16.472656 41.25 15.066406 C 40.773438 14.488281 40.230469 13.976562 39.722656 13.402344 C 41.1875 11.515625 43.035156 9.976562 45.167969 8.890625 C 45.359375 8.792969 45.453125 8.601562 45.484375 8.410156 C 45.453125 8.21875 45.328125 8.027344 45.136719 7.960938 C 43.574219 7.609375 42.046875 7.164062 40.484375 7.003906 C 37.585938 6.683594 34.878906 7.578125 32.300781 8.761719 C 31.949219 8.953125 31.535156 8.953125 31.1875 8.792969 C 27.046875 7.195312 22.875 5.722656 18.511719 4.796875 C 15.007812 4.089844 11.503906 3.644531 7.9375 3.386719 C 6.375 3.195312 4.785156 3.035156 3.253906 3.515625 C 2.203125 3.835938 2.078125 4.316406 2.523438 5.082031 C 3.222656 6.394531 3.988281 7.738281 4.625 9.113281 C 5.355469 10.617188 6.34375 11.992188 7.554688 13.175781 C 7.90625 13.53125 8.253906 13.882812 8.636719 14.203125 C 8.796875 14.296875 8.988281 14.328125 9.179688 14.296875 C 9.304688 14.265625 9.371094 14.007812 9.371094 13.847656 C 9.371094 13.53125 9.371094 13.242188 9.339844 12.921875 C 9.816406 13.402344 10.199219 13.945312 10.613281 14.425781 C 10.769531 14.617188 10.960938 14.714844 11.21875 14.746094 C 11.375 14.714844 11.566406 14.425781 11.632812 14.203125 C 11.726562 13.816406 11.789062 13.433594 11.824219 13.050781 C 12.109375 13.371094 12.332031 13.625 12.523438 13.914062 C 12.714844 14.167969 12.808594 14.488281 13.03125 14.746094 C 13.222656 14.90625 13.414062 15.066406 13.636719 15.191406 C 13.796875 15 13.925781 14.777344 14.019531 14.554688 C 14.117188 14.296875 14.179688 14.007812 14.210938 13.722656 C 14.464844 14.105469 14.6875 14.488281 14.878906 14.875 C 15.039062 15.066406 15.199219 15.257812 15.390625 15.417969 C 15.546875 15.226562 15.707031 15.035156 15.835938 14.808594 C 15.929688 14.617188 16.027344 14.394531 16.089844 14.203125 C 16.34375 15.738281 16.34375 15.738281 17.332031 15.929688 C 17.140625 16.3125 16.726562 16.503906 16.3125 16.472656 C 14.785156 16.441406 13.253906 16.410156 11.695312 16.3125 C 11.121094 16.28125 11.121094 16.761719 10.898438 17.050781 C 10.675781 17.335938 10.867188 17.496094 11.058594 17.65625 C 11.886719 18.296875 12.714844 18.96875 13.574219 19.609375 C 15.199219 20.792969 16.855469 21.976562 18.703125 22.808594 C 19.082031 22.96875 19.464844 23.160156 19.878906 23.351562 C 18.957031 24.3125 18.066406 25.269531 17.203125 26.230469 C 17.046875 26.421875 17.046875 26.742188 16.980469 27 C 17.238281 27.03125 17.523438 27.191406 17.746094 27.09375 C 21.28125 25.976562 25.007812 25.589844 28.703125 25.910156 C 30.324219 26.039062 31.917969 26.359375 33.320312 27.285156 C 35.199219 28.46875 35.867188 30.933594 34.816406 32.917969 C 34.019531 34.453125 32.683594 35.09375 31.121094 35.347656 C 29.5625 35.605469 27.96875 35.796875 26.410156 35.988281 C 25.515625 36.085938 24.6875 36.085938 23.925781 35.382812 C 20.230469 32.085938 15.738281 30.804688 10.960938 30.390625 C 10.804688 30.390625 10.644531 30.582031 10.453125 30.679688 C 10.546875 30.839844 10.613281 31.0625 10.769531 31.125 C 12.554688 31.796875 14.117188 32.789062 15.675781 33.878906 C 17.140625 34.871094 18.445312 36.019531 19.625 37.332031 C 18.957031 38.003906 18.320312 38.707031 17.617188 39.285156 C 16.855469 39.925781 15.960938 40.402344 15.167969 41.011719 C 14.945312 41.171875 14.878906 41.523438 14.71875 41.8125 C 14.910156 41.941406 15.132812 42.003906 15.359375 42.035156 C 18.511719 42.035156 21.1875 40.597656 23.796875 39.125 C 24.210938 38.867188 24.6875 38.773438 25.167969 38.867188 C 26.632812 39.1875 28.128906 39.636719 29.625 39.765625 C 31.1875 39.890625 32.808594 39.765625 34.371094 39.699219 C 37.078125 39.605469 39.5 38.613281 41.824219 37.332031 C 43.289062 36.5 44.402344 35.253906 45.390625 33.878906 C 46.410156 32.40625 47.363281 30.933594 47.746094 29.140625 C 47.84375 28.824219 47.9375 28.535156 48.066406 28.214844 C 48.257812 28.375 48.382812 28.46875 48.511719 28.566406 C 49.914062 29.847656 51.28125 31.09375 52.683594 32.375 C 52.875 32.566406 53.097656 32.695312 53.351562 32.757812 C 54.085938 32.855469 54.5625 32.246094 54.46875 31.414062 Z M 17.238281 6.234375 C 16.695312 6.425781 16.21875 6.652344 15.707031 6.9375 C 14.878906 7.515625 14.179688 7.484375 13.445312 6.84375 C 13.289062 6.714844 13.128906 6.585938 12.96875 6.460938 C 14.402344 6.105469 15.804688 6.140625 17.238281 6.234375 Z M 7.425781 12.058594 C 7.425781 12.027344 7.460938 11.960938 7.460938 11.929688 C 7.777344 11.898438 8.128906 11.898438 8.511719 11.867188 C 8.542969 12.3125 8.605469 12.730469 8.636719 13.144531 C 8.222656 12.761719 7.839844 12.410156 7.425781 12.058594 Z M 10.960938 13.5625 C 10.707031 13.273438 10.484375 12.984375 10.261719 12.730469 C 10.039062 12.472656 9.847656 12.1875 9.625 11.898438 C 9.6875 11.832031 9.71875 11.832031 9.71875 11.832031 C 11.566406 11.867188 11.25 11.640625 10.960938 13.5625 Z M 13.414062 13.847656 C 12.96875 13.273438 12.554688 12.761719 12.171875 12.25 C 12.203125 12.21875 12.203125 12.1875 12.238281 12.152344 C 12.714844 12.28125 13.222656 12.441406 13.765625 12.601562 C 13.636719 12.984375 13.542969 13.371094 13.414062 13.847656 Z M 15.324219 14.042969 C 15.167969 13.722656 15.007812 13.433594 14.847656 13.113281 C 14.878906 13.082031 14.878906 13.050781 14.910156 13.019531 C 15.167969 13.175781 15.421875 13.304688 15.707031 13.464844 C 15.582031 13.65625 15.453125 13.816406 15.324219 14.042969 Z M 43.828125 25.78125 C 43.160156 25.558594 42.492188 25.304688 41.824219 25.078125 C 41.601562 25.046875 41.34375 25.046875 41.121094 25.109375 C 41.15625 25.367188 41.21875 25.589844 41.34375 25.847656 C 41.632812 26.328125 42.015625 26.773438 42.269531 27.285156 C 43 28.695312 42.96875 30.359375 42.238281 31.734375 C 41.695312 32.789062 41.027344 33.78125 40.292969 34.675781 C 39.945312 35.0625 39.5 35.414062 39.019531 35.667969 C 37.621094 36.597656 36.089844 37.300781 34.433594 37.492188 C 33.191406 37.621094 31.949219 37.523438 30.613281 37.523438 C 31.34375 37.203125 32.015625 36.886719 32.714844 36.597656 C 33.894531 36.085938 35.039062 35.542969 35.929688 34.515625 C 37.238281 33.078125 37.492188 31.445312 36.917969 29.6875 C 36.152344 27.253906 34.371094 25.71875 32.140625 24.792969 C 29.785156 23.863281 27.394531 23.128906 24.910156 22.617188 C 23.066406 22.199219 21.25 21.625 19.433594 21.078125 C 19.082031 20.984375 18.734375 20.824219 18.414062 20.601562 C 17.140625 19.800781 15.867188 19 14.59375 18.199219 C 14.433594 18.105469 14.273438 17.976562 14.082031 17.847656 C 15.101562 17.6875 16.058594 17.625 16.980469 17.402344 C 18.988281 16.953125 19.050781 15.480469 18.253906 14.265625 C 18.03125 13.945312 17.808594 13.65625 17.554688 13.402344 C 16.824219 12.632812 15.898438 12.058594 14.910156 11.738281 C 12.746094 10.90625 10.421875 10.554688 8.097656 10.648438 C 7.617188 10.714844 7.171875 10.488281 6.949219 10.042969 C 6.632812 9.464844 6.25 8.921875 5.835938 8.28125 C 6.855469 8.347656 7.777344 8.28125 8.636719 8.441406 C 10.515625 8.792969 12.425781 9.210938 14.273438 9.753906 C 15.421875 10.042969 16.503906 10.523438 17.492188 11.160156 C 18.320312 11.738281 18.859375 12.664062 19.53125 13.464844 C 19.59375 13.53125 19.625 13.65625 19.6875 13.753906 C 19.816406 13.914062 19.976562 14.074219 20.101562 14.265625 C 20.230469 14.074219 20.359375 13.847656 20.421875 13.59375 C 20.546875 12.761719 20.582031 11.960938 20.675781 11.128906 C 20.675781 11.003906 20.707031 10.875 20.738281 10.746094 C 20.804688 10.746094 20.867188 10.746094 20.898438 10.714844 C 21.089844 11.675781 21.3125 12.664062 21.503906 13.625 C 21.601562 14.203125 21.664062 14.808594 21.757812 15.386719 C 21.789062 15.480469 21.886719 15.578125 21.980469 15.640625 C 22.109375 15.511719 22.269531 15.417969 22.300781 15.257812 C 22.492188 14.519531 22.652344 13.785156 22.777344 13.050781 C 22.875 12.472656 22.9375 11.929688 23.03125 11.355469 C 23.097656 11.355469 23.128906 11.355469 23.191406 11.355469 C 23.320312 12.441406 23.480469 13.496094 23.574219 14.585938 C 23.605469 15.160156 23.511719 15.769531 23.511719 16.378906 C 23.542969 16.535156 23.605469 16.695312 23.703125 16.824219 C 23.828125 16.695312 23.988281 16.632812 24.050781 16.472656 C 24.464844 15.191406 24.847656 13.882812 25.199219 12.730469 C 25.453125 13.65625 25.453125 14.617188 25.261719 15.546875 C 25.136719 16.183594 24.945312 16.824219 24.816406 17.496094 C 24.816406 17.71875 24.847656 17.914062 24.945312 18.105469 C 25.070312 18.007812 25.292969 17.914062 25.359375 17.753906 C 25.867188 16.695312 26.375 15.609375 26.886719 14.519531 C 28.734375 15.160156 43.605469 23.832031 45.644531 26.488281 C 45.007812 26.199219 44.402344 26.007812 43.828125 25.78125 Z M 43.828125 25.78125 " fill-opacity="1" fill-rule="nonzero"/></g><g fill="#ffffff" fill-opacity="1"><g transform="translate(57.71906, 30.488541)"><g><path d="M 0.191406 -13.296875 L 5.625 -6.648438 L 0.191406 0 L 4.027344 0 L 7.542969 -4.199219 L 11.039062 0 L 14.875 0 L 9.441406 -6.648438 L 14.875 -13.296875 L 11.039062 -13.296875 L 7.542969 -9.101562 L 4.027344 -13.296875 Z M 0.191406 -13.296875 "/></g></g></g></svg>