<svg xmlns="http://www.w3.org/2000/svg" xmlns:xlink="http://www.w3.org/1999/xlink" width="80" zoomAndPan="magnify" viewBox="0 0 60 44.999999" height="60" preserveAspectRatio="xMidYMid meet" version="1.0"><defs><clipPath id="5d6cd86da6"><path d="M 0 0.625 L 60 0.625 L 60 44.875 L 0 44.875 Z M 0 0.625 " clip-rule="nonzero"/></clipPath></defs><g clip-path="url(#5d6cd86da6)"><path fill="#ffffff" d="M 59.882812 32.824219 C 59.664062 31.261719 58.933594 29.957031 58.0625 28.648438 C 55.730469 25.273438 52.785156 22.332031 49.398438 20.007812 C 49.070312 19.753906 48.742188 19.429688 48.527344 19.101562 C 47.289062 17.503906 46.050781 15.871094 44.777344 14.273438 C 44.230469 13.621094 43.613281 13.039062 43.03125 12.386719 C 44.703125 10.246094 46.816406 8.503906 49.253906 7.269531 C 49.472656 7.160156 49.582031 6.941406 49.617188 6.722656 C 49.582031 6.503906 49.4375 6.289062 49.21875 6.214844 C 47.433594 5.816406 45.6875 5.308594 43.902344 5.125 C 40.589844 4.761719 37.496094 5.78125 34.550781 7.121094 C 34.148438 7.339844 33.675781 7.339844 33.277344 7.160156 C 28.542969 5.34375 23.777344 3.675781 18.789062 2.621094 C 14.785156 1.824219 10.78125 1.316406 6.707031 1.023438 C 4.921875 0.804688 3.101562 0.625 1.355469 1.167969 C 0.15625 1.53125 0.0078125 2.078125 0.519531 2.949219 C 1.320312 4.4375 2.191406 5.960938 2.921875 7.523438 C 3.757812 9.226562 4.886719 10.789062 6.269531 12.132812 C 6.667969 12.53125 7.070312 12.929688 7.507812 13.292969 C 7.6875 13.402344 7.90625 13.4375 8.125 13.402344 C 8.269531 13.367188 8.34375 13.074219 8.34375 12.894531 C 8.34375 12.53125 8.34375 12.203125 8.308594 11.839844 C 8.855469 12.386719 9.289062 13.003906 9.761719 13.546875 C 9.945312 13.765625 10.164062 13.875 10.457031 13.910156 C 10.636719 13.875 10.855469 13.546875 10.929688 13.292969 C 11.039062 12.859375 11.109375 12.421875 11.148438 11.988281 C 11.472656 12.351562 11.730469 12.640625 11.949219 12.96875 C 12.164062 13.257812 12.273438 13.621094 12.53125 13.910156 C 12.75 14.09375 12.964844 14.273438 13.222656 14.417969 C 13.402344 14.203125 13.550781 13.945312 13.65625 13.691406 C 13.765625 13.402344 13.839844 13.074219 13.875 12.75 C 14.167969 13.183594 14.421875 13.621094 14.640625 14.054688 C 14.824219 14.273438 15.003906 14.492188 15.222656 14.671875 C 15.40625 14.457031 15.585938 14.238281 15.734375 13.984375 C 15.84375 13.765625 15.949219 13.511719 16.023438 13.292969 C 16.316406 15.035156 16.316406 15.035156 17.441406 15.253906 C 17.226562 15.691406 16.75 15.90625 16.277344 15.871094 C 14.53125 15.835938 12.785156 15.796875 11 15.691406 C 10.347656 15.652344 10.347656 16.199219 10.089844 16.523438 C 9.835938 16.851562 10.054688 17.03125 10.273438 17.214844 C 11.21875 17.941406 12.164062 18.703125 13.148438 19.429688 C 15.003906 20.773438 16.898438 22.113281 19.007812 23.058594 C 19.445312 23.238281 19.882812 23.457031 20.355469 23.675781 C 19.300781 24.765625 18.28125 25.855469 17.296875 26.941406 C 17.117188 27.160156 17.117188 27.523438 17.042969 27.8125 C 17.335938 27.851562 17.660156 28.03125 17.917969 27.921875 C 21.957031 26.652344 26.214844 26.214844 30.4375 26.578125 C 32.292969 26.726562 34.113281 27.085938 35.714844 28.140625 C 37.863281 29.484375 38.625 32.277344 37.425781 34.53125 C 36.515625 36.273438 34.984375 36.996094 33.203125 37.289062 C 31.417969 37.578125 29.601562 37.796875 27.816406 38.015625 C 26.796875 38.125 25.851562 38.125 24.976562 37.324219 C 20.753906 33.585938 15.625 32.132812 10.164062 31.660156 C 9.980469 31.660156 9.800781 31.878906 9.582031 31.988281 C 9.691406 32.167969 9.761719 32.425781 9.945312 32.496094 C 11.984375 33.257812 13.765625 34.382812 15.550781 35.617188 C 17.226562 36.742188 18.71875 38.050781 20.0625 39.539062 C 19.300781 40.300781 18.570312 41.101562 17.769531 41.753906 C 16.898438 42.480469 15.878906 43.023438 14.96875 43.714844 C 14.714844 43.894531 14.640625 44.292969 14.457031 44.621094 C 14.675781 44.765625 14.933594 44.839844 15.1875 44.875 C 18.789062 44.875 21.847656 43.242188 24.832031 41.570312 C 25.304688 41.28125 25.851562 41.171875 26.398438 41.28125 C 28.070312 41.644531 29.78125 42.152344 31.492188 42.296875 C 33.277344 42.441406 35.132812 42.296875 36.914062 42.226562 C 40.007812 42.117188 42.773438 40.992188 45.433594 39.539062 C 47.105469 38.59375 48.378906 37.179688 49.507812 35.617188 C 50.671875 33.949219 51.765625 32.277344 52.203125 30.246094 C 52.3125 29.882812 52.421875 29.554688 52.566406 29.191406 C 52.785156 29.375 52.929688 29.484375 53.074219 29.59375 C 54.675781 31.042969 56.242188 32.460938 57.84375 33.914062 C 58.0625 34.128906 58.316406 34.273438 58.609375 34.347656 C 59.445312 34.457031 59.992188 33.765625 59.882812 32.824219 Z M 17.335938 4.253906 C 16.714844 4.472656 16.167969 4.726562 15.585938 5.054688 C 14.640625 5.707031 13.839844 5.671875 13.003906 4.945312 C 12.820312 4.800781 12.640625 4.65625 12.457031 4.507812 C 14.09375 4.109375 15.695312 4.144531 17.335938 4.253906 Z M 6.125 10.863281 C 6.125 10.824219 6.160156 10.753906 6.160156 10.714844 C 6.523438 10.679688 6.925781 10.679688 7.363281 10.644531 C 7.398438 11.152344 7.46875 11.625 7.507812 12.097656 C 7.035156 11.660156 6.597656 11.261719 6.125 10.863281 Z M 10.164062 12.566406 C 9.871094 12.242188 9.617188 11.914062 9.363281 11.625 C 9.109375 11.332031 8.890625 11.007812 8.636719 10.679688 C 8.707031 10.609375 8.746094 10.609375 8.746094 10.609375 C 10.855469 10.644531 10.492188 10.390625 10.164062 12.566406 Z M 12.964844 12.894531 C 12.457031 12.242188 11.984375 11.660156 11.546875 11.078125 C 11.582031 11.042969 11.582031 11.007812 11.621094 10.96875 C 12.164062 11.117188 12.75 11.296875 13.367188 11.480469 C 13.222656 11.914062 13.113281 12.351562 12.964844 12.894531 Z M 15.148438 13.113281 C 14.96875 12.75 14.785156 12.421875 14.605469 12.058594 C 14.640625 12.023438 14.640625 11.988281 14.675781 11.949219 C 14.96875 12.132812 15.257812 12.277344 15.585938 12.457031 C 15.441406 12.675781 15.296875 12.859375 15.148438 13.113281 Z M 47.726562 26.433594 C 46.960938 26.179688 46.195312 25.890625 45.433594 25.636719 C 45.175781 25.597656 44.886719 25.597656 44.632812 25.671875 C 44.667969 25.960938 44.742188 26.214844 44.886719 26.507812 C 45.214844 27.050781 45.652344 27.558594 45.941406 28.140625 C 46.777344 29.738281 46.742188 31.625 45.90625 33.1875 C 45.285156 34.382812 44.523438 35.507812 43.683594 36.527344 C 43.285156 36.960938 42.773438 37.359375 42.230469 37.652344 C 40.628906 38.703125 38.878906 39.503906 36.988281 39.71875 C 35.570312 39.867188 34.148438 39.757812 32.621094 39.757812 C 33.457031 39.394531 34.222656 39.03125 35.023438 38.703125 C 36.371094 38.125 37.679688 37.507812 38.699219 36.34375 C 40.191406 34.710938 40.480469 32.859375 39.828125 30.863281 C 38.953125 28.105469 36.914062 26.363281 34.367188 25.308594 C 31.675781 24.257812 28.945312 23.421875 26.105469 22.839844 C 23.996094 22.367188 21.921875 21.714844 19.84375 21.097656 C 19.445312 20.988281 19.042969 20.808594 18.679688 20.554688 C 17.226562 19.644531 15.769531 18.738281 14.3125 17.832031 C 14.132812 17.722656 13.949219 17.578125 13.730469 17.433594 C 14.894531 17.25 15.988281 17.179688 17.042969 16.921875 C 19.335938 16.414062 19.410156 14.746094 18.5 13.367188 C 18.242188 13.003906 17.988281 12.675781 17.699219 12.386719 C 16.859375 11.515625 15.804688 10.863281 14.675781 10.5 C 12.203125 9.554688 9.546875 9.15625 6.886719 9.265625 C 6.34375 9.335938 5.832031 9.082031 5.578125 8.574219 C 5.214844 7.921875 4.777344 7.304688 4.304688 6.578125 C 5.46875 6.652344 6.523438 6.578125 7.507812 6.757812 C 9.65625 7.160156 11.839844 7.632812 13.949219 8.25 C 15.257812 8.574219 16.496094 9.121094 17.625 9.84375 C 18.570312 10.5 19.191406 11.550781 19.953125 12.457031 C 20.027344 12.53125 20.0625 12.675781 20.136719 12.785156 C 20.28125 12.96875 20.464844 13.148438 20.609375 13.367188 C 20.753906 13.148438 20.902344 12.894531 20.972656 12.605469 C 21.121094 11.660156 21.15625 10.753906 21.265625 9.808594 C 21.265625 9.664062 21.300781 9.519531 21.335938 9.375 C 21.410156 9.375 21.484375 9.375 21.519531 9.335938 C 21.738281 10.425781 21.992188 11.550781 22.210938 12.640625 C 22.320312 13.292969 22.394531 13.984375 22.503906 14.636719 C 22.539062 14.746094 22.648438 14.855469 22.757812 14.925781 C 22.902344 14.78125 23.085938 14.671875 23.121094 14.492188 C 23.339844 13.65625 23.519531 12.820312 23.667969 11.988281 C 23.777344 11.332031 23.847656 10.714844 23.957031 10.0625 C 24.03125 10.0625 24.066406 10.0625 24.140625 10.0625 C 24.285156 11.296875 24.46875 12.496094 24.578125 13.730469 C 24.613281 14.382812 24.503906 15.074219 24.503906 15.761719 C 24.539062 15.945312 24.613281 16.125 24.722656 16.269531 C 24.867188 16.125 25.050781 16.050781 25.121094 15.871094 C 25.597656 14.417969 26.03125 12.929688 26.433594 11.625 C 26.722656 12.675781 26.722656 13.765625 26.507812 14.820312 C 26.359375 15.542969 26.140625 16.269531 25.996094 17.03125 C 25.996094 17.285156 26.03125 17.503906 26.140625 17.722656 C 26.289062 17.613281 26.542969 17.503906 26.613281 17.324219 C 27.199219 16.125 27.78125 14.890625 28.363281 13.65625 C 30.472656 14.382812 47.46875 24.21875 49.800781 27.234375 C 49.070312 26.90625 48.378906 26.6875 47.726562 26.433594 Z M 47.726562 26.433594 " fill-opacity="1" fill-rule="nonzero"/></g></svg>