<svg xmlns="http://www.w3.org/2000/svg" xmlns:xlink="http://www.w3.org/1999/xlink" width="500" zoomAndPan="magnify" viewBox="0 0 375 374.999991" height="500" preserveAspectRatio="xMidYMid meet" version="1.0"><path fill="#052d49" d="M 56.25 0 L 318.75 0 C 320.59375 0 322.429688 0.0898438 324.261719 0.269531 C 326.097656 0.453125 327.917969 0.722656 329.722656 1.082031 C 331.53125 1.441406 333.316406 1.886719 335.078125 2.421875 C 336.839844 2.957031 338.574219 3.578125 340.277344 4.28125 C 341.976562 4.988281 343.640625 5.773438 345.265625 6.640625 C 346.890625 7.511719 348.46875 8.457031 350 9.480469 C 351.53125 10.503906 353.011719 11.597656 354.433594 12.769531 C 355.859375 13.9375 357.222656 15.171875 358.523438 16.476562 C 359.828125 17.777344 361.0625 19.140625 362.230469 20.566406 C 363.402344 21.988281 364.496094 23.46875 365.519531 25 C 366.542969 26.53125 367.488281 28.109375 368.359375 29.734375 C 369.226562 31.359375 370.011719 33.023438 370.71875 34.722656 C 371.421875 36.425781 372.042969 38.160156 372.578125 39.921875 C 373.113281 41.683594 373.558594 43.46875 373.917969 45.277344 C 374.277344 47.082031 374.546875 48.902344 374.730469 50.738281 C 374.910156 52.570312 375 54.40625 375 56.25 L 375 318.75 C 375 320.59375 374.910156 322.429688 374.730469 324.261719 C 374.546875 326.097656 374.277344 327.917969 373.917969 329.722656 C 373.558594 331.53125 373.113281 333.316406 372.578125 335.078125 C 372.042969 336.839844 371.421875 338.574219 370.71875 340.277344 C 370.011719 341.976562 369.226562 343.640625 368.359375 345.265625 C 367.488281 346.890625 366.542969 348.46875 365.519531 350 C 364.496094 351.53125 363.402344 353.011719 362.230469 354.433594 C 361.0625 355.859375 359.828125 357.222656 358.523438 358.523438 C 357.222656 359.828125 355.859375 361.0625 354.433594 362.230469 C 353.011719 363.402344 351.53125 364.496094 350 365.519531 C 348.46875 366.542969 346.890625 367.488281 345.265625 368.359375 C 343.640625 369.226562 341.976562 370.011719 340.277344 370.71875 C 338.574219 371.421875 336.839844 372.042969 335.078125 372.578125 C 333.316406 373.113281 331.53125 373.558594 329.722656 373.917969 C 327.917969 374.277344 326.097656 374.546875 324.261719 374.730469 C 322.429688 374.910156 320.59375 375 318.75 375 L 56.25 375 C 54.40625 375 52.570312 374.910156 50.738281 374.730469 C 48.902344 374.546875 47.082031 374.277344 45.277344 373.917969 C 43.46875 373.558594 41.683594 373.113281 39.921875 372.578125 C 38.160156 372.042969 36.425781 371.421875 34.722656 370.71875 C 33.023438 370.011719 31.359375 369.226562 29.734375 368.359375 C 28.109375 367.488281 26.53125 366.542969 25 365.519531 C 23.46875 364.496094 21.988281 363.402344 20.566406 362.230469 C 19.140625 361.0625 17.777344 359.828125 16.476562 358.523438 C 15.171875 357.222656 13.9375 355.859375 12.769531 354.433594 C 11.597656 353.011719 10.503906 351.53125 9.480469 350 C 8.457031 348.46875 7.511719 346.890625 6.640625 345.265625 C 5.773438 343.640625 4.988281 341.976562 4.28125 340.277344 C 3.578125 338.574219 2.957031 336.839844 2.421875 335.078125 C 1.886719 333.316406 1.441406 331.53125 1.082031 329.722656 C 0.722656 327.917969 0.453125 326.097656 0.269531 324.261719 C 0.0898438 322.429688 0 320.59375 0 318.75 L 0 56.25 C 0 54.40625 0.0898438 52.570312 0.269531 50.738281 C 0.453125 48.902344 0.722656 47.082031 1.082031 45.277344 C 1.441406 43.46875 1.886719 41.683594 2.421875 39.921875 C 2.957031 38.160156 3.578125 36.425781 4.28125 34.722656 C 4.988281 33.023438 5.773438 31.359375 6.640625 29.734375 C 7.511719 28.109375 8.457031 26.53125 9.480469 25 C 10.503906 23.46875 11.597656 21.988281 12.769531 20.566406 C 13.9375 19.140625 15.171875 17.777344 16.476562 16.476562 C 17.777344 15.171875 19.140625 13.9375 20.566406 12.769531 C 21.988281 11.597656 23.46875 10.503906 25 9.480469 C 26.53125 8.457031 28.109375 7.511719 29.734375 6.640625 C 31.359375 5.773438 33.023438 4.988281 34.722656 4.28125 C 36.425781 3.578125 38.160156 2.957031 39.921875 2.421875 C 41.683594 1.886719 43.46875 1.441406 45.277344 1.082031 C 47.082031 0.722656 48.902344 0.453125 50.738281 0.269531 C 52.570312 0.0898438 54.40625 0 56.25 0 Z M 56.25 0 " fill-opacity="1" fill-rule="nonzero"/><path fill="#ffffff" d="M 320.066406 160.398438 C 320.066406 161.71875 320.035156 163.035156 319.972656 164.355469 C 319.90625 165.671875 319.808594 166.984375 319.679688 168.296875 C 319.550781 169.609375 319.390625 170.917969 319.195312 172.222656 C 319.003906 173.527344 318.777344 174.824219 318.519531 176.117188 C 318.261719 177.410156 317.972656 178.699219 317.652344 179.976562 C 317.332031 181.253906 316.980469 182.527344 316.597656 183.789062 C 316.214844 185.050781 315.804688 186.300781 315.359375 187.542969 C 314.914062 188.785156 314.441406 190.011719 313.9375 191.230469 C 313.429688 192.449219 312.898438 193.65625 312.332031 194.847656 C 311.769531 196.039062 311.175781 197.214844 310.554688 198.378906 C 309.933594 199.542969 309.285156 200.6875 308.605469 201.820312 C 307.929688 202.949219 307.222656 204.0625 306.492188 205.160156 C 305.757812 206.257812 305 207.335938 304.214844 208.394531 C 303.429688 209.453125 302.617188 210.492188 301.78125 211.511719 C 300.945312 212.53125 300.082031 213.527344 299.199219 214.503906 C 298.3125 215.480469 297.402344 216.4375 296.472656 217.371094 C 295.539062 218.300781 294.582031 219.210938 293.605469 220.097656 C 292.628906 220.980469 291.632812 221.84375 290.613281 222.679688 C 289.59375 223.515625 288.554688 224.328125 287.496094 225.113281 C 286.4375 225.898438 285.359375 226.65625 284.261719 227.390625 C 283.164062 228.121094 282.050781 228.828125 280.921875 229.503906 C 279.789062 230.183594 278.644531 230.832031 277.480469 231.453125 C 276.316406 232.074219 275.140625 232.667969 273.949219 233.230469 C 272.757812 233.796875 271.550781 234.328125 270.332031 234.835938 C 269.113281 235.339844 267.886719 235.8125 266.644531 236.257812 C 265.402344 236.703125 264.152344 237.113281 262.890625 237.496094 C 261.628906 237.878906 260.355469 238.230469 259.078125 238.550781 C 257.800781 238.871094 256.511719 239.160156 255.21875 239.417969 C 253.925781 239.675781 252.628906 239.902344 251.324219 240.09375 C 250.019531 240.289062 248.710938 240.449219 247.398438 240.578125 C 246.085938 240.707031 244.773438 240.804688 243.457031 240.871094 C 242.136719 240.933594 240.820312 240.964844 239.5 240.964844 C 238.183594 240.964844 236.867188 240.933594 235.546875 240.871094 C 234.230469 240.804688 232.917969 240.707031 231.605469 240.578125 C 230.292969 240.449219 228.984375 240.289062 227.679688 240.09375 C 226.375 239.902344 225.078125 239.675781 223.785156 239.417969 C 222.492188 239.160156 221.203125 238.871094 219.925781 238.550781 C 218.648438 238.230469 217.375 237.878906 216.113281 237.496094 C 214.851562 237.113281 213.601562 236.703125 212.359375 236.257812 C 211.117188 235.8125 209.886719 235.339844 208.671875 234.835938 C 207.453125 234.328125 206.246094 233.796875 205.054688 233.230469 C 203.863281 232.667969 202.6875 232.074219 201.523438 231.453125 C 200.359375 230.832031 199.214844 230.183594 198.082031 229.503906 C 196.953125 228.828125 195.839844 228.121094 194.742188 227.390625 C 193.644531 226.65625 192.566406 225.898438 191.507812 225.113281 C 190.449219 224.328125 189.410156 223.515625 188.390625 222.679688 C 187.371094 221.84375 186.375 220.980469 185.398438 220.097656 C 184.417969 219.210938 183.464844 218.300781 182.53125 217.371094 C 181.601562 216.4375 180.691406 215.480469 179.804688 214.503906 C 178.921875 213.527344 178.058594 212.53125 177.222656 211.511719 C 176.386719 210.492188 175.574219 209.453125 174.789062 208.394531 C 174.003906 207.335938 173.246094 206.257812 172.511719 205.160156 C 171.78125 204.0625 171.074219 202.949219 170.398438 201.820312 C 169.71875 200.6875 169.070312 199.542969 168.449219 198.378906 C 167.828125 197.214844 167.234375 196.039062 166.671875 194.847656 C 166.105469 193.65625 165.574219 192.449219 165.066406 191.230469 C 164.5625 190.011719 164.089844 188.785156 163.644531 187.542969 C 163.199219 186.300781 162.789062 185.050781 162.40625 183.789062 C 162.023438 182.527344 161.671875 181.253906 161.351562 179.976562 C 161.03125 178.699219 160.742188 177.410156 160.484375 176.117188 C 160.226562 174.824219 160 173.527344 159.808594 172.222656 C 159.613281 170.917969 159.453125 169.609375 159.324219 168.296875 C 159.195312 166.984375 159.097656 165.671875 159.03125 164.355469 C 158.96875 163.035156 158.9375 161.71875 158.933594 160.398438 C 158.9375 159.082031 158.96875 157.765625 159.03125 156.445312 C 159.097656 155.128906 159.195312 153.816406 159.324219 152.503906 C 159.453125 151.191406 159.613281 149.882812 159.808594 148.578125 C 160 147.273438 160.226562 145.976562 160.484375 144.683594 C 160.742188 143.390625 161.03125 142.101562 161.351562 140.824219 C 161.671875 139.546875 162.023438 138.273438 162.40625 137.011719 C 162.789062 135.75 163.199219 134.5 163.644531 133.257812 C 164.089844 132.015625 164.5625 130.785156 165.066406 129.570312 C 165.574219 128.351562 166.105469 127.144531 166.671875 125.953125 C 167.234375 124.761719 167.828125 123.585938 168.449219 122.421875 C 169.070312 121.257812 169.71875 120.113281 170.398438 118.980469 C 171.074219 117.851562 171.78125 116.738281 172.511719 115.640625 C 173.246094 114.542969 174.003906 113.464844 174.789062 112.40625 C 175.574219 111.347656 176.386719 110.308594 177.222656 109.289062 C 178.058594 108.269531 178.921875 107.273438 179.804688 106.296875 C 180.691406 105.316406 181.601562 104.363281 182.53125 103.429688 C 183.464844 102.5 184.417969 101.589844 185.398438 100.703125 C 186.375 99.820312 187.371094 98.957031 188.390625 98.121094 C 189.410156 97.285156 190.449219 96.472656 191.507812 95.6875 C 192.566406 94.902344 193.644531 94.144531 194.742188 93.410156 C 195.839844 92.679688 196.953125 91.972656 198.082031 91.296875 C 199.214844 90.617188 200.359375 89.96875 201.523438 89.347656 C 202.6875 88.726562 203.863281 88.132812 205.054688 87.570312 C 206.246094 87.003906 207.453125 86.472656 208.671875 85.964844 C 209.886719 85.460938 211.117188 84.988281 212.359375 84.542969 C 213.601562 84.097656 214.851562 83.6875 216.113281 83.304688 C 217.375 82.921875 218.648438 82.570312 219.925781 82.25 C 221.203125 81.929688 222.492188 81.640625 223.785156 81.382812 C 225.078125 81.125 226.375 80.898438 227.679688 80.707031 C 228.984375 80.511719 230.292969 80.351562 231.605469 80.222656 C 232.917969 80.09375 234.230469 79.996094 235.546875 79.929688 C 236.867188 79.867188 238.183594 79.832031 239.5 79.832031 C 240.820312 79.832031 242.136719 79.867188 243.457031 79.929688 C 244.773438 79.996094 246.085938 80.09375 247.398438 80.222656 C 248.710938 80.351562 250.019531 80.511719 251.324219 80.707031 C 252.628906 80.898438 253.925781 81.125 255.21875 81.382812 C 256.511719 81.640625 257.800781 81.929688 259.078125 82.25 C 260.355469 82.570312 261.628906 82.921875 262.890625 83.304688 C 264.152344 83.6875 265.402344 84.097656 266.644531 84.542969 C 267.886719 84.988281 269.113281 85.460938 270.332031 85.964844 C 271.550781 86.472656 272.757812 87.003906 273.949219 87.570312 C 275.140625 88.132812 276.316406 88.726562 277.480469 89.347656 C 278.644531 89.96875 279.789062 90.617188 280.921875 91.296875 C 282.050781 91.972656 283.164062 92.679688 284.261719 93.410156 C 285.359375 94.144531 286.4375 94.902344 287.496094 95.6875 C 288.554688 96.472656 289.59375 97.285156 290.613281 98.121094 C 291.632812 98.957031 292.628906 99.820312 293.605469 100.703125 C 294.582031 101.589844 295.539062 102.5 296.472656 103.429688 C 297.402344 104.363281 298.3125 105.316406 299.199219 106.296875 C 300.082031 107.273438 300.945312 108.269531 301.78125 109.289062 C 302.617188 110.308594 303.429688 111.347656 304.214844 112.40625 C 305 113.464844 305.757812 114.542969 306.492188 115.640625 C 307.222656 116.738281 307.929688 117.851562 308.605469 118.980469 C 309.285156 120.113281 309.933594 121.257812 310.554688 122.421875 C 311.175781 123.585938 311.769531 124.761719 312.332031 125.953125 C 312.898438 127.144531 313.429688 128.351562 313.933594 129.570312 C 314.441406 130.785156 314.914062 132.015625 315.359375 133.257812 C 315.804688 134.5 316.214844 135.75 316.597656 137.011719 C 316.980469 138.273438 317.332031 139.546875 317.652344 140.824219 C 317.972656 142.101562 318.261719 143.390625 318.519531 144.683594 C 318.777344 145.976562 319.003906 147.273438 319.195312 148.578125 C 319.390625 149.882812 319.550781 151.191406 319.679688 152.503906 C 319.808594 153.816406 319.90625 155.128906 319.972656 156.445312 C 320.035156 157.765625 320.066406 159.082031 320.066406 160.398438 Z M 320.066406 160.398438 " fill-opacity="1" fill-rule="nonzero"/><path fill="#f96854" d="M 135.496094 294.433594 L 135.496094 79.832031 L 95.945312 79.832031 L 95.945312 294.433594 Z M 135.496094 294.433594 " fill-opacity="1" fill-rule="nonzero"/></svg>